<?xml version="1.0" encoding="utf-8"?>
<!-- Generator: Adobe Illustrator 28.2.0, SVG Export Plug-In . SVG Version: 6.00 Build 0)  -->
<svg version="1.1" id="Слой_1" xmlns="http://www.w3.org/2000/svg" xmlns:xlink="http://www.w3.org/1999/xlink" x="0px" y="0px"
	 viewBox="0 0 3200 2000" style="enable-background:new 0 0 3200 2000;" xml:space="preserve">
<style type="text/css">
	.st0{fill:#EBF3FA;}
	.st1{fill:#B3D2F2;}
	.st2{fill:#97C5EF;}
	.st3{fill:#2C3A64;}
	.st4{fill:#F99746;}
	.st5{fill:#ED7D2B;}
	.st6{fill:#4C88F2;}
	.st7{fill:#97BDFF;}
	.st8{fill:#DD6819;}
	.st9{fill:#FFFFFF;}
	.st10{fill:#FFB27D;}
	.st11{fill:#35488B;}
	.st12{fill:#EA9C68;}
	.st13{fill:#2E3552;}
	.st14{fill:#6BB7BF;}
	.st15{fill:#86D1CD;}
	.st16{fill:#F1A34F;}
	.st17{fill:#DB7714;}
	.st18{fill:#5685D8;}
	.st19{fill:#739AF0;}
</style>
<g>
	<path class="st0" d="M420.39,1842.17l828.99-4.57l220.97-0.07l73.21-0.03l221.39-0.07l1011.46-0.29c0,0,231.35-314.8-15.77-613.78
		c-256.22-309.99-380.81-57.53-459.57-493.88C2102.83-368.88,142.79,270.39,656.89,1205.05
		C842,1541.59,292.51,1362.71,420.39,1842.17z"/>
	<g>
		<g>
			<path class="st1" d="M1545.65,1835.51c3.05,0,5.65-1.78,6.17-4.21l30.26-142.53l43.53-204.99l12.17-57.32l-31.01-0.74
				l-5.38,33.27l-37.77,233.84l-22.39,138.61C1540.9,1833.61,1542.96,1835.51,1545.65,1835.51z"/>
		</g>
		<path class="st2" d="M1601.41,1459.01c20.09,7.37,24.21,24.78,24.21,24.78l12.17-57.32l-31.01-0.74L1601.41,1459.01z"/>
		<g>
			<path class="st1" d="M2185.75,1835.51c-3.05,0-5.65-1.78-6.17-4.21l-30.26-142.53l-43.53-204.99l-12.17-57.32l31.01-0.74
				l5.38,33.27l37.77,233.84l22.39,138.61C2190.5,1833.61,2188.44,1835.51,2185.75,1835.51z"/>
		</g>
		<path class="st2" d="M2129.99,1459.01c-20.09,7.37-24.21,24.78-24.21,24.78l-12.17-57.32l31.01-0.74L2129.99,1459.01z"/>
		<path class="st1" d="M1519.29,1448.97h663.36c12.38,0,22.51-10.13,22.51-22.5l0,0c0-12.38-10.13-22.5-22.51-22.5h-663.36
			c-12.38,0-22.5,10.13-22.5,22.5l0,0C1496.79,1438.84,1506.91,1448.97,1519.29,1448.97z"/>
	</g>
	<g>
		<circle class="st3" cx="1950.12" cy="938.3" r="14.29"/>
		<path class="st3" d="M1950.12,932.81L1950.12,932.81c-1.13,0-2.05-0.92-2.05-2.05v-57.84c0-1.13,0.92-2.05,2.05-2.05l0,0
			c1.13,0,2.05,0.92,2.05,2.05v57.84C1952.17,931.88,1951.25,932.81,1950.12,932.81z"/>
		<path class="st3" d="M1769.62,938.3c0-7.89,6.4-14.29,14.29-14.29c7.89,0,14.29,6.4,14.29,14.29c0,7.89-6.4,14.29-14.29,14.29
			C1776.02,952.59,1769.62,946.19,1769.62,938.3z"/>
		<g>
			<g>
				<path class="st3" d="M1550.97,1237.85c-0.3,2.41,0.55,4.93,2.5,6.68c3.16,2.84,8.03,2.58,10.87-0.58
					c2.89-3.18,12.36-11.47,21.2-11.46c4.17,0,7.92,1.9,11.44,5.79c13.56,14.99-5.72,37.11-5.91,37.34
					c-2.82,3.18-2.52,8.05,0.66,10.87c3.18,2.82,8.05,2.52,10.87-0.66c9.95-11.24,23.96-37.79,5.81-57.87
					c-6.44-7.12-14.37-10.88-22.93-10.87c-7.56,0.01-15.38,2.85-23.25,8.44c-5.47,3.88-8.96,7.71-9.34,8.13
					C1551.79,1234.87,1551.16,1236.34,1550.97,1237.85z"/>
			</g>
			<g>
				<path class="st3" d="M1600.28,1234.45c0,1.33,0.48,2.67,1.44,3.74c2.07,2.3,5.61,2.49,7.91,0.42l17.91-16.12
					c2.3-2.07,2.48-5.61,0.42-7.91c-2.07-2.3-5.61-2.49-7.91-0.42l-17.91,16.12C1600.9,1231.39,1600.28,1232.92,1600.28,1234.45z"/>
			</g>
		</g>
		<g>
			<path class="st4" d="M1617.89,1229.62l1.53,1.01c1.75,1.17,3.57,2.16,5.45,2.96c0.02,0,0.05,0.02,0.06,0.02
				c12.32,5.23,26.86,2.57,36.63-7.17c20.21-20.1,46.96-34.06,79.88-41.62c1.27-0.29,2.52-0.56,3.78-0.82
				c12.45-2.64,23.96-3.94,33.46-4.54c14.68-0.93,26.55-12.35,27.87-27l0.1-1.01l0.47-5.08c1.19-12.75-9.04-23.66-21.84-23.3
				c-12.51,0.35-29.04,1.64-47.49,5.24c-12.35,2.4-25.55,5.82-39,10.69c-29.51,10.68-60.16,28.22-85.39,56.93
				C1604.41,1206.17,1606.55,1222.03,1617.89,1229.62z"/>
		</g>
		<path class="st5" d="M1624.93,1233.61c12.32,5.23,26.86,2.57,36.63-7.17c20.21-20.1,46.96-34.06,79.88-41.62
			c1.27-0.29,2.52-0.56,3.78-0.82c-2.89-27.23-5.9-54.87-5.9-54.87l-1.53-0.82c-12.35,2.4-25.55,5.82-39,10.69
			c0,0,6.21,27.39-16.31,40.65C1659.97,1192.92,1641.48,1239.27,1624.93,1233.61z"/>
		<g>
			<path class="st4" d="M1973.09,1109.31c11.5-10.31,7.34-27.69,7.16-28.42l-10.97,3.11l5.49-1.56l-5.5,1.52
				c0.03,0.11,2.47,10.73-3.48,16.06L1973.09,1109.31z"/>
		</g>
		<g>
			<path class="st4" d="M1818.64,1109.31c-11.5-10.31-7.34-27.69-7.16-28.42l10.97,3.11l-5.49-1.56l5.49,1.52
				c-0.02,0.11-2.47,10.73,3.48,16.06L1818.64,1109.31z"/>
		</g>
		<path class="st6" d="M1803.13,1087.05h226.09c15.43,0,28.06-12.63,28.06-28.06v-95.97c0-15.43-12.63-28.06-28.06-28.06h-226.09
			c-15.43,0-28.06,12.63-28.06,28.06V1059C1775.07,1074.43,1787.69,1087.05,1803.13,1087.05z"/>
		<path class="st7" d="M1743.53,1087.05h229.49c14.5,0,26.36-11.86,26.36-26.36v-99.37c0-14.5-11.86-26.36-26.36-26.36h-229.49
			c-14.5,0-26.36,11.86-26.36,26.36v99.37C1717.18,1075.19,1729.04,1087.05,1743.53,1087.05z"/>
		<path class="st6" d="M1798.28,1403.86h255.15c10.61,0,19.3-8.68,19.3-19.3v-266.42c0-10.61-8.68-19.3-19.3-19.3h-255.15
			c-10.61,0-19.3,8.68-19.3,19.3v266.42C1778.98,1395.18,1787.66,1403.86,1798.28,1403.86z"/>
		<path class="st7" d="M2005.15,1118.14v266.43c0,10.6-8.68,19.29-19.3,19.29H1730.7c-10.62,0-19.3-8.68-19.3-19.29v-266.43
			c0-10.62,8.68-19.3,19.3-19.3h255.15C1996.47,1098.84,2005.15,1107.53,2005.15,1118.14z"/>
		<path class="st5" d="M1652.98,1404.67h165.69c9.98,0,18.15-8.17,18.15-18.15v-38.22c0-9.98-8.17-18.15-18.15-18.15h-165.69
			c-9.98,0-18.15,8.17-18.15,18.15v38.22C1634.83,1396.5,1643,1404.67,1652.98,1404.67z"/>
		<path class="st4" d="M1694.09,1404.67h165.69c9.98,0,18.15-8.17,18.15-18.15v-38.22c0-9.98-8.17-18.15-18.15-18.15h-165.69
			c-9.98,0-18.15,8.17-18.15,18.15v38.22C1675.94,1396.5,1684.1,1404.67,1694.09,1404.67z"/>
		<path class="st8" d="M1753.98,1404.67h165.69c9.98,0,18.15-8.17,18.15-18.15v-38.22c0-9.98-8.17-18.15-18.15-18.15h-165.69
			c-9.98,0-18.15,8.17-18.15,18.15v38.22C1735.83,1396.5,1744,1404.67,1753.98,1404.67z"/>
		<path class="st4" d="M1776.93,1348.3v38.23c0,9.97,8.17,18.14,18.16,18.14h165.68c9.99,0,18.16-8.17,18.16-18.14v-38.23
			c0-9.99-8.17-18.16-18.16-18.16h-165.68C1785.1,1330.14,1776.93,1338.31,1776.93,1348.3z"/>
		<path class="st5" d="M1776.93,1383.71v2.81c0,9.97,8.17,18.14,18.16,18.14h165.68c9.99,0,18.16-8.17,18.16-18.14v-38.23
			c0-9.99-8.17-18.16-18.16-18.16h-60.66C1886.28,1351.75,1852.71,1384.78,1776.93,1383.71z"/>
		
			<rect x="1832.58" y="1087.05" transform="matrix(-1 -1.224647e-16 1.224647e-16 -1 3758.4351 2185.9004)" class="st6" width="93.27" height="11.79"/>
		
			<rect x="1908.87" y="1087.05" transform="matrix(-1 -1.224647e-16 1.224647e-16 -1 3871.6743 2185.9004)" class="st3" width="53.94" height="11.79"/>
		<g>
			<path class="st4" d="M1738.13,1128.44l13.64,16.89c2.33,2.89,6.72,2.89,9.05,0l5.46-6.76l8.71-10.79
				c1.81-2.24,0.21-5.58-2.66-5.58h-31.21C1737.9,1122.21,1736.11,1125.94,1738.13,1128.44z"/>
			<path class="st5" d="M1738.13,1128.44l13.64,16.89c2.33,2.89,6.72,2.89,9.05,0l5.46-6.76c-11.93-2.89-16.5-11.35-18.19-16.37
				h-6.97C1737.9,1122.21,1736.11,1125.94,1738.13,1128.44z"/>
		</g>
		<g>
			<g>
				<path class="st4" d="M2021.9,1165.67c0,0,0-0.01-0.01-0.03l-1.88-5.53l-0.38-1.09c-5.49-15.99,1.58-33.51,16.54-41.4
					c10.64-5.59,23.46-13.23,36.52-23.1c30.96-23.39,52.46-50.58,64.2-81.15c6.56-17.08,24.16-27.24,42.2-24.19l2.1,0.36
					c7.72,1.32,14.02,5.88,17.79,12c3.78,6.09,5.03,13.73,2.72,21.22c-27.7,89.62-105.29,137.49-145.96,157.08
					C2042.48,1186.21,2026.65,1179.6,2021.9,1165.67z"/>
			</g>
			<path class="st5" d="M2021.89,1165.64l-1.88-5.53l-0.38-1.09c-5.49-15.99,1.58-33.51,16.54-41.4
				c10.64-5.59,23.46-13.23,36.52-23.1c30.96-23.39,52.46-50.58,64.2-81.15c6.56-17.08,24.16-27.24,42.2-24.19l2.1,0.36
				c7.72,1.32,14.02,5.88,17.79,12c-17.15-3.86-36.97-3.02-45.27,17.24c-15.98,39.01-63.11,81.43-101.12,104.34
				C2015.42,1145.48,2021.6,1164.79,2021.89,1165.64z"/>
			<g>
				<g>
					<path class="st3" d="M2175.11,911.38c2.51-1.23,5.56-1.26,8.19,0.19c4.28,2.36,5.83,7.74,3.47,12.02
						c-2.36,4.33-7.78,17.73-4.43,27.32c1.58,4.53,5.05,7.87,10.6,10.22c21.38,9.05,38.11-20.21,38.28-20.5
						c2.39-4.26,7.78-5.77,12.04-3.38c4.26,2.39,5.77,7.78,3.38,12.04c-8.44,15.03-31.96,40.26-60.6,28.13
						c-10.16-4.3-17.23-11.49-20.44-20.78c-2.84-8.21-2.71-17.76,0.38-28.4c2.15-7.4,4.98-12.63,5.3-13.2
						C2172.19,913.4,2173.55,912.15,2175.11,911.38z"/>
				</g>
				<g>
					<path class="st3" d="M2190.03,966.17c1.45-0.5,3.08-0.49,4.6,0.15c3.28,1.38,4.81,5.15,3.44,8.42l-10.73,25.52
						c-1.38,3.27-5.15,4.81-8.42,3.44c-3.28-1.38-4.81-5.15-3.44-8.42l10.73-25.52C2186.94,968,2188.36,966.74,2190.03,966.17z"/>
				</g>
			</g>
		</g>
		<path class="st0" d="M1806.38,1033.4h115.47c0,0-11.77,24.43-63.57,24.44C1815.76,1057.84,1806.38,1033.4,1806.38,1033.4z"/>
		<rect x="1740.56" y="964.74" class="st6" width="243.24" height="53.31"/>
		<g>
			<rect x="1782.16" y="987.03" class="st0" width="5.55" height="5.55"/>
			<rect x="1775.14" y="987.03" class="st0" width="5.55" height="5.55"/>
			<rect x="1775.14" y="994.28" class="st0" width="5.55" height="5.55"/>
			<rect x="1767.87" y="987.03" class="st0" width="5.55" height="5.55"/>
			<rect x="1789.22" y="987.03" class="st0" width="5.55" height="5.55"/>
			<rect x="1789.22" y="994.28" class="st0" width="5.55" height="5.55"/>
			<rect x="1796.27" y="987.03" class="st0" width="5.55" height="5.55"/>
			<rect x="1782.16" y="979.85" class="st0" width="5.55" height="5.55"/>
			<rect x="1782.16" y="973.19" class="st0" width="5.55" height="5.55"/>
			<rect x="1789.22" y="979.85" class="st0" width="5.55" height="5.55"/>
			<rect x="1775.14" y="979.85" class="st0" width="5.55" height="5.55"/>
			<rect x="1782.16" y="994.28" class="st0" width="5.55" height="5.55"/>
			<rect x="1782.16" y="1001.59" class="st0" width="5.55" height="5.55"/>
		</g>
		<g>
			<rect x="1930.46" y="987.03" class="st0" width="5.55" height="5.55"/>
			<rect x="1923.44" y="987.03" class="st0" width="5.55" height="5.55"/>
			<rect x="1923.44" y="994.28" class="st0" width="5.55" height="5.55"/>
			<rect x="1916.17" y="987.03" class="st0" width="5.55" height="5.55"/>
			<rect x="1937.52" y="987.03" class="st0" width="5.55" height="5.55"/>
			<rect x="1937.52" y="994.28" class="st0" width="5.55" height="5.55"/>
			<rect x="1944.57" y="987.03" class="st0" width="5.55" height="5.55"/>
			<rect x="1930.46" y="979.85" class="st0" width="5.55" height="5.55"/>
			<rect x="1930.46" y="973.19" class="st0" width="5.55" height="5.55"/>
			<rect x="1937.52" y="979.85" class="st0" width="5.55" height="5.55"/>
			<rect x="1923.44" y="979.85" class="st0" width="5.55" height="5.55"/>
			<rect x="1930.46" y="994.28" class="st0" width="5.55" height="5.55"/>
			<rect x="1930.46" y="1001.59" class="st0" width="5.55" height="5.55"/>
		</g>
		<path class="st3" d="M1783.91,932.81L1783.91,932.81c-1.13,0-2.05-0.92-2.05-2.05v-57.84c0-1.13,0.92-2.05,2.05-2.05l0,0
			c1.13,0,2.05,0.92,2.05,2.05v57.84C1785.97,931.88,1785.04,932.81,1783.91,932.81z"/>
		<g>
			<path class="st9" d="M1935.92,1116.37c0-2.2,1.78-3.98,3.98-3.98c2.2,0,3.98,1.78,3.98,3.98s-1.78,3.98-3.98,3.98
				C1937.7,1120.35,1935.92,1118.57,1935.92,1116.37z"/>
			<path class="st9" d="M1952.97,1116.37c0-2.2,1.78-3.98,3.98-3.98c2.2,0,3.98,1.78,3.98,3.98s-1.78,3.98-3.98,3.98
				C1954.75,1120.35,1952.97,1118.57,1952.97,1116.37z"/>
			<path class="st9" d="M1969.85,1116.37c0-2.2,1.78-3.98,3.98-3.98c2.2,0,3.98,1.78,3.98,3.98s-1.78,3.98-3.98,3.98
				C1971.63,1120.35,1969.85,1118.57,1969.85,1116.37z"/>
		</g>
		<g>
			<polygon class="st3" points="1926.71,1098.84 1857.98,1214.27 1797.41,1098.84 1799.97,1098.84 1858.11,1209.61 1924.07,1098.84 
							"/>
		</g>
		<g>
			<path class="st4" d="M1804.6,1220.46c0-29.65,24.03-53.68,53.68-53.68c29.65,0,53.68,24.03,53.68,53.68
				c0,29.65-24.03,53.68-53.68,53.68C1828.63,1274.14,1804.6,1250.1,1804.6,1220.46z"/>
			<g>
				<path class="st5" d="M1858.28,1267.79c-26.1,0-47.33-21.23-47.33-47.33c0-26.1,21.23-47.33,47.33-47.33
					c26.1,0,47.33,21.23,47.33,47.33C1905.61,1246.55,1884.38,1267.79,1858.28,1267.79z M1858.28,1178.86
					c-22.93,0-41.59,18.66-41.59,41.59c0,22.93,18.66,41.59,41.59,41.59c22.93,0,41.59-18.66,41.59-41.59
					C1899.87,1197.52,1881.21,1178.86,1858.28,1178.86z"/>
			</g>
			<g>
				<path class="st9" d="M1843.54,1247.82l-0.02-3.33c9.26-0.5,9.88-1.49,9.85-7.96l-0.16-32.54c-0.02-4.58-1.64-4.94-5.33-5.37
					l-2.7-0.44l-0.01-2.97c6.92-0.84,14.64-2.68,19.93-4.59l0.23,45.85c0.03,6.65,0.58,7.46,9.75,7.86l0.02,3.33L1843.54,1247.82z"
					/>
			</g>
		</g>
	</g>
	<path class="st10" d="M1178.65,896.69l-72.42,49.97l-22.69-51.82c0,0,7.43-19.95,7.86-51.09c0.17-13.09-0.88-28.16-4.26-44.56
		l67.56,24.03c0,0-0.73,6.05-0.6,14.82c0.16,9.47,1.34,22.12,5.57,33.72C1163.33,881.71,1169.22,890.89,1178.65,896.69z"/>
	<path class="st10" d="M1188.3,891.58c0,0,113.22-81.95,120.86-94.03c7.64-12.07,48.7-122.76,48.7-122.76l24.42,5.55
		c0,0-18.66,135.86-31.79,161.35c-13.13,25.5-146.9,125.93-146.9,125.93L1188.3,891.58z"/>
	<path class="st3" d="M1303.51,1778.31c0,0,8.17,15.94,26.26,19.88c11.4,2.48,21.16,8.42,27.23,16.73
		c5.13,7.03,0.17,16.92-8.54,16.92h-91.85c-7.82,0-13.93-6.75-13.14-14.53c0.68-6.8,1.4-14.73,1.71-20.81
		c0.68-13.27,13.97-23.95,13.97-23.95L1303.51,1778.31z"/>
	<path class="st11" d="M1305.73,1781.32c0,0-22.04,13.02-59.32,5.16c0,0-63.39-162.1-67.14-238.38c-0.17-3.06-0.22-5.98-0.17-8.76
		c1.28-71.74-64.97-258.57-47.1-296.84c17.87-38.29,162.24,17.2,162.24,17.2l2.87,130.18L1305.73,1781.32z"/>
	<path class="st3" d="M1297.1,1389.89l-117.84,158.22c-0.17-3.06-0.22-5.98-0.17-8.76c1.28-71.74-64.97-258.57-47.1-296.84
		c17.87-38.29,162.24,17.2,162.24,17.2L1297.1,1389.89z"/>
	<path class="st3" d="M1066.98,1778.23c0,0,8.17,15.94,26.26,19.88c11.4,2.48,21.16,8.42,27.23,16.73
		c5.13,7.03,0.17,16.92-8.54,16.92h-91.85c-7.82,0-13.93-6.75-13.14-14.53c0.68-6.8,1.4-14.73,1.71-20.81
		c0.68-13.27,13.97-23.95,13.97-23.95L1066.98,1778.23z"/>
	<path class="st11" d="M1209.79,1262.79c0,0-127.59,476.16-131.5,522.76c0,0-24.89,12.77-65.29-9.79c0,0-10.06-209.69,0-271.74
		c16.34-100.81,18.83-243.26,78.5-283.03C1151.17,1181.24,1209.79,1262.79,1209.79,1262.79z"/>
	<path class="st12" d="M1159.69,871.75c-36.11,3.8-68.27-28-68.27-28l62.7-5.71C1154.27,847.51,1155.45,860.15,1159.69,871.75z"/>
	<path class="st10" d="M1179.04,834.71c0,0-61.98,42.02-104.62-4.03c-46.01-49.69-33.11-102.2-10.93-113.23
		c44.24-21.99,77.31-13.78,91.98,2.01C1170.16,735.26,1213.36,811.86,1179.04,834.71z"/>
	<g>
		<path class="st3" d="M1091.41,844.22c0,0-14.38-19.5-17.82-32.39c0,0-25.81-16.47-17.4-25.74c8.41-9.27,18.74,2.21,20.19-1.27
			c1.45-3.48-10.51-49.45,2.6-52.46c13.11-3.02,64.85-4.94,79.12-29.77c14.26-24.83-59.57-76.33-134.34-20.17
			C948.99,738.57,997.11,824.87,1091.41,844.22z"/>
		<path class="st3" d="M995.14,733.65c0,0-7.8-10.03-6.56-19.58c0,0,4.13,11.11,10.26,14.54S995.14,733.65,995.14,733.65z"/>
		<path class="st3" d="M994.1,725.09c0,0-10.82,2.47-12.92,12.2c0,0,5.59-7.53,14.84-4.88L994.1,725.09z"/>
	</g>
	<path class="st9" d="M1135.05,809.82c0,0,9.66,10.51,30.26,2.56c0,0,13.92-8.81,8.35-21.6
		C1173.67,790.78,1152.53,789.93,1135.05,809.82z"/>
	<path class="st10" d="M1357.57,676.56c0,0,1.58-10.67-0.96-20.04c-2.54-9.37-2.07-37.3,2.22-35.53c4.29,1.77,5.41,14.7,10.46,14.21
		c5.05-0.48,11.16-11.42,17.34-8.29c6.18,3.13,14.51-2.7,10.51,16.89c-4,19.59-15.15,38.31-15.15,38.31L1357.57,676.56z"/>
	<g>
		<path class="st10" d="M1053.97,982.29c0,0-67.21,97.34-100.79,128.23c0,0-41.73,121.07-45.22,129.09
			c-3.49,8.02-29.2-4.97-29.2-4.97s11.5-116.14,28.29-151.29c16.79-35.14,68.4-152.84,108.92-159.26
			C1056.48,917.66,1053.97,982.29,1053.97,982.29z"/>
		<path class="st10" d="M907.42,1239.83c0,0-1.98,11.97,0.7,22.55c2.68,10.59-2.74,36.61-7.53,34.54
			c-4.79-2.07-1.44-11.25-7.13-10.8c-5.69,0.45-18.22,29.94-25.11,26.3c-6.89-3.64-10.92-14.54-6.05-36.5
			c4.87-21.96,17.76-42.8,17.76-42.8L907.42,1239.83z"/>
	</g>
	<path class="st4" d="M1279.6,1274.93c-20.98,8.79-43.77,15.46-66.58,20.49c0,0,0,0-0.01,0c-0.01,0.01-0.03,0.01-0.07,0.02
		c-67.72,14.98-135.53,15.73-156.21,15.57c-4.14-0.04-6.38-0.1-6.38-0.1c-9.87-1.03-17.49-8.73-18.74-18.23
		c-0.17-1.23-0.2-2.49-0.16-3.76c0,0-4.08-112.33-5.32-137.83c-1.99-40.88-9.22-103.08-9.22-103.08l-15.34,15.62
		c0,0-23.59,0.72-45.15-14.08c-19.32-13.26-22.74-34.48-22.74-34.48s48.84-77.54,79.56-99.26c21.98-15.54,70.31-20.97,70.31-20.97
		c13.4,10.54,39.05,25.24,64.67,18.4c19.25-5.16,20.56-16.38,18.74-27.51l85.53-43.81c0,0,36.42,26.54,34.74,76.72
		c0,0-31.13,22.53-35,37.93c-9.77,38.98,52.16,270.39,52.16,270.39C1308.67,1246.84,1298.32,1267.08,1279.6,1274.93z"/>
	<path class="st5" d="M1213,1295.42c-0.01,0.01-0.03,0.01-0.07,0.02c-67.72,14.98-135.53,15.73-156.21,15.57
		c-4.14-0.04-6.38-0.1-6.38-0.1c-9.87-1.03-17.49-8.73-18.74-18.23c-0.17-1.23-0.2-2.49-0.16-3.76c0,0-4.08-112.33-5.32-137.83
		c-1.99-40.88-9.22-103.08-9.22-103.08s51.65,173.55,79.69,213.71C1124.41,1301.57,1211.63,1295.53,1213,1295.42z"/>
	<g>
		<g>
			<g>
				<path class="st5" d="M1820.8,722.88l-95.48,67.69c-4.97-7-6.62-15.36-5.29-23.21c1.34-7.86,5.67-15.19,12.68-20.16
					c6.17-4.38,7.62-12.94,3.25-19.11l-30.29-42.73l22.36-15.85l30.29,42.73c2.19,3.09,5.42,5,8.88,5.59
					c3.46,0.59,7.15-0.14,10.23-2.33c7-4.97,15.36-6.63,23.21-5.29C1808.49,711.54,1815.83,715.87,1820.8,722.88z"/>
				<path class="st4" d="M1820.8,722.88l-63.47,45c-17.95,9.01-25.05-2.3-23.71-10.15c1.34-7.85,5.67-15.19,12.68-20.16
					c6.17-4.38,7.62-12.94,3.25-19.11l-30.29-42.73l8.77-6.22l30.29,42.73c2.19,3.09,5.42,5,8.88,5.59
					c3.46,0.59,7.15-0.14,10.23-2.33c7-4.97,15.36-6.63,23.21-5.29C1808.49,711.54,1815.83,715.87,1820.8,722.88z"/>
				<path class="st4" d="M1669.87,337.79l61.37,115.07c31.49,44.41,32.55,98.01,15.66,141.56c-0.01,0.01,0,0.01-0.01,0.02
					c-5.75,14.84-13.59,28.51-23.02,40.26c-7.79,9.7-7.38,24.96,1.1,36.93l1.77,2.5c5.24,7.41,9.65,13.63,9.65,13.63l-16.27,11.54
					c0,0-4.46-6.27-9.75-13.73c-9.34-13.14-24.96-19.44-37.97-15.14c-55.57,18.37-127.61,3.01-169.31-55.8l-86.32-97.38
					L1669.87,337.79z"/>
				<g>
					<path class="st5" d="M1571.69,664.8c-32.47-21.34-58.97-12.68-87.04-3.51c-22.44,7.33-45.65,14.91-71.95,7.27
						c-29.18-8.47-51.8-33.61-56.28-62.54c-3.4-22.01,4.54-41.22,21.77-52.78c24.5-16.39,56.44-12.55,92.38,11.11
						c25.74,16.94,44.55,37.98,45.34,38.87l-12.82,11.39c-0.69-0.78-69.85-77.56-115.36-47.11c-15.71,10.5-15.73,27-14.36,35.9
						c3.42,22.12,21.56,42.15,44.11,48.69c21.23,6.16,40.96-0.28,61.84-7.11c29.26-9.56,62.42-20.39,101.79,5.48L1571.69,664.8z"/>
				</g>
				<g>
					<path class="st4" d="M1755.9,534.2c-9.39-37.7,7.56-59.85,25.5-83.29c14.35-18.75,29.18-38.14,30.68-65.49
						c1.66-30.34-14.57-60-40.39-73.8c-19.64-10.5-40.4-9.36-57.01,3.08c-23.57,17.69-30.52,49.11-20.1,90.85
						c7.47,29.9,21.1,54.61,21.68,55.65l14.99-8.33c-0.51-0.91-50.07-91.58-6.28-124.45c15.1-11.35,30.68-5.91,38.63-1.67
						c19.74,10.55,32.63,34.29,31.35,57.74c-1.21,22.07-13.82,38.56-27.17,56.01c-18.7,24.45-39.9,52.15-28.52,97.86L1755.9,534.2z"
						/>
				</g>
				<path class="st5" d="M1746.89,594.44c-5.75,14.84-13.59,28.51-23.02,40.26c-7.79,9.7-7.38,24.96,1.1,36.93l1.77,2.5
					c0.45,6.7,2.21,12.38,5.88,16.3l-12.5,8.86c0,0-4.46-6.27-9.75-13.73c-9.34-13.14-24.96-19.44-37.97-15.14
					c-55.57,18.37-127.61,3.01-169.31-55.8l-86.32-97.38l41.84-29.66C1458.62,487.57,1608.99,747.27,1746.89,594.44z"/>
				<path class="st4" d="M1750.21,682.01l-41.68,29.55c-5.66,4.01-13.57,2.67-17.58-2.99l0,0c-4.01-5.66-2.66-13.57,2.99-17.58
					l41.68-29.55c5.66-4.01,13.57-2.66,17.58,2.99l0,0C1757.22,670.09,1755.87,678,1750.21,682.01z"/>
			</g>
			<g>
				<path class="st9" d="M1620.79,611.15l-5.25-7.4c19.89-15.6,19.73-18.79,9.52-33.19l-51.32-72.38c-7.23-10.2-11.4-8.45-20.3-3.63
					l-6.71,3.25l-4.68-6.6c14.12-12.71,28.48-28.91,37.3-41.47l72.3,101.97c10.49,14.8,12.96,15.75,34.07,2.29l5.24,7.4
					L1620.79,611.15z"/>
			</g>
		</g>
	</g>
	<path class="st13" d="M2958.74,1840.19H241.82c-1.84,0-3.34-1.5-3.34-3.34v-1.78c0-1.84,1.5-3.34,3.34-3.34h2716.92
		c1.84,0,3.34,1.5,3.34,3.34v1.78C2962.07,1838.68,2960.57,1840.19,2958.74,1840.19z"/>
	<g>
		<path class="st14" d="M809.27,779.12c0,0,9.78,13.39,8.73,28.67c-0.78,11.34-10.88,22.81-11.56,23.26l15.95,8.51
			c0,0,11.83-21,7.84-38.55c-1.22-5.38-6.88-13.98-11.03-17.81C814.61,778.98,809.27,779.12,809.27,779.12z"/>
		<path class="st15" d="M776.65,780.54l-10.1-22.33c0,0,47.14,1.59,62.76,40.01C829.32,798.22,796.33,774.69,776.65,780.54z"/>
	</g>
	<g>
		<path class="st14" d="M2505.36,958.7c0,0-17.83-9.71-24.67-27.18c-5.07-12.96,0.12-30.96,0.63-31.81l-22.12-1.07
			c0,0-2.11,29.45,11.49,46.79c4.17,5.32,14.93,11.88,21.54,13.95C2499.51,961.66,2505.36,958.7,2505.36,958.7z"/>
		<path class="st15" d="M2540.73,940.06l22.87,19.44c0,0-53.04,22.9-90.44-11.46C2473.16,948.04,2522.01,956.83,2540.73,940.06z"/>
	</g>
	<g>
		<path class="st14" d="M532.29,1334.01c0,0-13.76-10.39-17.32-25.92c-2.64-11.52,3.98-25.99,4.52-26.64l-18.44-3.67
			c0,0-5.46,24.47,3.79,40.75c2.83,4.99,11.05,11.85,16.34,14.42C527.01,1335.76,532.29,1334.01,532.29,1334.01z"/>
		<path class="st15" d="M564.33,1322.78l16.78,19.2c0,0-47.43,12.59-74.54-20.96C506.58,1321.02,546.5,1334.53,564.33,1322.78z"/>
	</g>
	<g>
		<path class="st16" d="M2597.04,1229.43c0,0-1.21-18.04,32.65-26.76c15.17-3.91,48.96,3.04,27.54,36.29
			c-22.28,34.58-42.14,22.1-42.14,22.1s46.47-36.37,27.88-53c-20.52-18.36-28.41,18.02-28.41,18.02S2606.3,1225.62,2597.04,1229.43z
			"/>
		<path class="st17" d="M2609.06,1263.13c0,0-12.66-6.86-7.65-22.07l18.2,3.16c0,0-7,16.47,10.12,18.47
			C2629.73,1262.68,2613.26,1266.6,2609.06,1263.13z"/>
	</g>
	<g>
		<path class="st18" d="M1126.53,403.25c0,0,26.91-38.76,68.18-11.31l25.14-24.04c0,0-23.48-17.83-77.65,14.14
			C1106.76,402.96,1126.53,403.25,1126.53,403.25z"/>
		<path class="st19" d="M1099.97,441.24c0,0-5.32-44.49,69.15-72.25c0,0-26.92,13.05-35.22,57.39L1099.97,441.24z"/>
	</g>
	<g>
		<path class="st18" d="M2452.56,1492.71c0,0-33.13-1.68-32.06-36.5l-23.68-6.08c0,0-1.93,20.64,37.27,41.1
			C2459.73,1504.62,2452.56,1492.71,2452.56,1492.71z"/>
		<path class="st19" d="M2485.1,1494.47c0,0-24.58,19.69-68.8-14.46c0,0,17.78,11.23,47.34-0.28L2485.1,1494.47z"/>
	</g>
	<g>
		<path class="st18" d="M1976.82,394.69c0,0-33.13-1.68-32.06-36.5l-23.68-6.08c0,0-1.93,20.64,37.27,41.1
			C1983.99,406.6,1976.82,394.69,1976.82,394.69z"/>
		<path class="st19" d="M2009.36,396.45c0,0-24.58,19.69-68.8-14.46c0,0,17.78,11.23,47.34-0.28L2009.36,396.45z"/>
	</g>
	<path class="st4" d="M2131.07,624.05c0,0,20.08-12.68,22.2-28.01c0,0,19.55,1.06,23.78,7.4c0,0-8.98,25.37-19.55,30.12
		C2157.5,633.56,2133.71,635.15,2131.07,624.05z"/>
	<path class="st7" d="M1445.32,1095.67c0,0,24.35-15.38,26.91-33.96c0,0,23.71,1.28,28.83,8.97c0,0-10.89,30.75-23.71,36.52
		C1477.36,1107.2,1448.52,1109.12,1445.32,1095.67z"/>
	<path class="st4" d="M2141.69,1664.9c0,0-16.5-10.42-18.24-23.02c0,0-16.07,0.87-19.54,6.08c0,0,7.38,20.85,16.07,24.76
		C2119.97,1672.72,2139.51,1674.02,2141.69,1664.9z"/>
	<path class="st15" d="M1957.19,742.17c0,0,14.49,13.21,27.15,11.54c0,0,3.43,15.8-0.69,20.55c0,0-22.16-1.61-28.25-8.98
		C1955.39,765.28,1948.93,746.7,1957.19,742.17z"/>
	<path class="st10" d="M1380.5,623.02c0,0-0.69,7.11,5.37,14.5c6.06,7.39,13.84,11.26,14.88,6.77
		C1401.78,639.8,1397.29,609.85,1380.5,623.02z"/>
</g>
</svg>
